<svg xmlns="http://www.w3.org/2000/svg" xmlns:xlink="http://www.w3.org/1999/xlink" width="400" height="400" viewBox="0 0 400 400"><defs><radialGradient id="gradient-11" cx="49.3%" cy="46.6%" r="489px">       <stop offset="0%" stop-color="rgb(255, 214, 126)"/>       <stop offset="100.2%" stop-color="rgb(253, 200, 0)"/>     </radialGradient></defs>
<rect data-name="background" width="100%" height="100%" fill="#ffff"/><g data-name="watermark" class="watermark-logodesign" stroke="#ffffff" transform="translate(40, 280) scale(1.5) rotate(-45)" style="opacity:0.040000010281801224;"><path fill="#000000" d="M19.52,53.48c-10.32,0-17.72-7.64-17.72-17.32c0-10,8.2-17.76,18.32-17.76c10.36,0,17.76,7.48,17.76,17.56c0,6.24-3.56,9.84-7.84,9.84c-2.96,0-4.44-1.56-5.04-3.72c-1.48,2-3.64,3.08-6.16,3.08c-4.84,0-8.52-3.8-8.52-8.96c0-5.2,3.64-9,8.56-9c2.36,0,4.52,0.96,6,3l0-2.52l3.44,0l0,12.48c0,1.68,0.6,2.96,2.24,2.96c2.12,0,4.2-2.52,4.2-7.12c0-8.28-5.76-14.68-14.6-14.68c-8.48,0-15.24,6.44-15.24,14.84c0,8.16,6.24,14.4,14.68,14.4c2.88,0,6.04-0.68,8.2-2.4l0.8,2.88c-2.36,1.68-5.68,2.44-9.08,2.44z M19.36,41.92c3.24,0,5.64-2.4,5.64-5.76c0-3.32-2.36-5.68-5.64-5.68c-3.2,0-5.48,2.36-5.48,5.68s2.32,5.76,5.48,5.76z M46.84,42.4l14.72,0l0,4l-19.08,0l0-28l4.36,0l0,24z M74.8,46.92c-6.16,0-10.68-4.56-10.68-10.6c0-6,4.52-10.56,10.68-10.56s10.68,4.56,10.68,10.56c0,6.04-4.52,10.6-10.68,10.6z M74.8,43.12c3.84,0,6.6-2.92,6.6-6.76c0-3.88-2.76-6.8-6.6-6.8s-6.6,2.92-6.6,6.8c0,3.84,2.76,6.76,6.6,6.76z M105.68,26.28l4.2,0l0,19.4c0,5.6-4.08,9.64-10.2,9.64c-4.84,0-7.92-2.24-9.6-5.24l3.68-1.36c1.2,2,3.12,3.08,6,3.08c3.84,0,5.88-2.64,5.92-6.08l0-2.96c-1.56,2.12-4,3.4-7.08,3.4c-5.84,0-10.04-4.44-10.04-10.2c0-5.96,4.2-10.2,10.04-10.2c3.08,0,5.52,1.28,7.08,3.36l0-2.84z M99.24,42.4c3.72,0,6.56-2.72,6.56-6.44s-2.84-6.4-6.56-6.4c-3.88,0-6.56,2.68-6.56,6.4s2.68,6.44,6.56,6.44z M124.92,46.92c-6.16,0-10.68-4.56-10.68-10.6c0-6,4.52-10.56,10.68-10.56s10.68,4.56,10.68,10.56c0,6.04-4.52,10.6-10.68,10.6z M124.92,43.12c3.84,0,6.6-2.92,6.6-6.76c0-3.88-2.76-6.8-6.6-6.8s-6.6,2.92-6.6,6.8c0,3.84,2.76,6.76,6.6,6.76z M141.88,46.68c-1.56,0-2.76-1.2-2.76-2.72c0-1.48,1.2-2.68,2.76-2.68s2.76,1.2,2.76,2.68c0,1.52-1.2,2.72-2.76,2.72z M158.2,46.92c-5.68,0-10-4.52-10-10.6c0-6.04,4.32-10.56,10-10.56c3.24,0,5.72,1.4,7.24,3.56l0-3.04l4.16,0l0,20.12l-4.16,0l0-3.04c-1.52,2.16-4,3.56-7.24,3.56z M158.88,43.16c3.68,0,6.64-2.88,6.64-6.84c0-3.92-2.96-6.8-6.64-6.8c-3.84,0-6.56,2.84-6.56,6.8s2.72,6.84,6.56,6.84z M186.6,25.76c5.68,0,10.04,4.52,10.04,10.56c0,6.08-4.36,10.6-10.04,10.6c-3.2,0-5.68-1.4-7.2-3.56l0,11.44l-4.2,0l0-28.52l4.2,0l0,3.04c1.52-2.16,4-3.56,7.2-3.56z M185.92,43.16c3.84,0,6.56-2.88,6.56-6.84s-2.72-6.8-6.56-6.8c-3.68,0-6.64,2.88-6.64,6.8c0,3.96,2.96,6.84,6.64,6.84z M212.36,25.76c5.68,0,10.04,4.52,10.04,10.56c0,6.08-4.36,10.6-10.04,10.6c-3.2,0-5.68-1.4-7.2-3.56l0,11.44l-4.2,0l0-28.52l4.2,0l0,3.04c1.52-2.16,4-3.56,7.2-3.56z M211.68,43.16c3.84,0,6.56-2.88,6.56-6.84s-2.72-6.8-6.56-6.8c-3.68,0-6.64,2.88-6.64,6.8c0,3.96,2.96,6.84,6.64,6.84z"/></g><g data-name="container" data="container_num:5" fill="url(#gradient-11)" transform="translate(13.315546095765882,150.41644315893797) scale(0.5244740050510202)"><path xmlns="http://www.w3.org/2000/svg" d="M17.914 148.907zM22.657 154.94a90.586 90.586 0 0 0 5.861 6.251c6.914 6.805 15.159 12.525 24.004 16.851 3.259 1.526 6.265 3.107 9.787 4.468.88.338 1.779.7 2.724 1.026.953.302 1.941.604 2.974.903 1.027.321 2.122.549 3.267.786 1.146.23 2.336.493 3.614.624a91.24 91.24 0 0 1-18.434-5.99 93.833 93.833 0 0 1-16.873-9.842c-10.548-7.727-19.57-17.648-26.16-28.989-.272-.339-.685-.985-1.18-1.808l-.796-1.348-.803-1.551c-.534-1.076-1.149-2.168-1.62-3.226a71.281 71.281 0 0 0-1.326-2.748c2.048 5.101 4.412 9.563 7.059 13.806a93.473 93.473 0 0 0 3.869 5.697c-.192-.259-.392-.511-.583-.771a95.012 95.012 0 0 0 4.6 5.841l.016.02zM18.039 149.078l-.125-.17.125.17zM1.335 106.042l-.483-3.875c.256 2.365.553 5.008 1.096 7.654l-.327-1.879a23.961 23.961 0 0 1-.286-1.9zM85.812 185.575c6.652.673 13.628.472 20.461-.609 6.837-1.077 13.524-2.987 19.741-5.449-11.45 4.503-23.602 6.506-35.49 6.171-1.591-.025-3.159 0-4.712-.113z"/><path xmlns="http://www.w3.org/2000/svg" d="M46.426 171.967l-.259-.165c.087.055.172.111.259.165zM46.167 171.802zM43.653 170.135zM56.077 177.284A83.837 83.837 0 0 0 73.2 183.1c-9.688-2.21-18.805-6.109-26.774-11.133 3.06 1.947 6.277 3.749 9.651 5.317zM177.002 107.094c.098-1.58.296-3.238.346-4.027.594-5.071.77-9.401.745-13.745-.11-.783-.425-2.25-.55-3.918-.153-1.672-.378-3.309-.568-4.924-.289-1.601-.538-3.186-.854-4.74 2.275 11.617 2.237 23.279.144 34.282a94.97 94.97 0 0 1 .737-2.928z"/><path xmlns="http://www.w3.org/2000/svg" d="M.887 83.482c.848-6.9 2.653-13.626 4.37-18.107l-.695 3.28c.429-.961 1.122-3.194 2.067-5.557l.682-1.802.753-1.747c.5-1.131.92-2.203 1.363-3.025-.303.771-.595 1.602-.947 2.436-.345.837-.732 1.687-1.101 2.542l1.514-3.409A111.863 111.863 0 0 0 4.954 69.8c-1.133 4.352-2.029 8.926-2.511 13.032-.14 1.024-.189 2.024-.28 2.978-.067.954-.183 1.864-.192 2.724-.042 1.719-.1 3.224-.071 4.428.105 2.409.25 3.61.459 2.939.411-1.333.403-8.188 1.837-16.767.767-4.276 1.868-8.966 3.362-13.561 1.483-4.599 3.427-9.058 5.44-12.992l-.592 1.292-.545 1.331-1.116 2.691-1.024 2.78-.521 1.402c-.153.476-.308.954-.461 1.434-1.32 3.807-2.307 7.816-3.167 11.857l-.559 3.052c-.205 1.014-.292 2.046-.444 3.067-.318 2.041-.434 4.097-.611 6.129-.199 4.074-.239 8.098.13 11.946-.015-.914-.03-1.726-.017-2.512l.115-2.355c.048-.809.039-1.667.115-2.65.07-.983.134-2.091.19-3.402.391-6.608 1.572-13.15 3.408-19.481 1.75-6.358 3.814-11.957 6.889-17.03l.801-1.526c.542-1.024.993-2.034 1.566-3.064.653-1.13 1.278-1.976 1.784-2.751.521-.767.963-1.441 1.469-2.095l3.682-5.082c.075-.009-.022.185-.2.473a28.962 28.962 0 0 1 1.959-2.49c.755-.875 1.488-1.803 2.109-2.569.146-.007.288-.011.623-.251 8.65-9.197 19.295-16.692 31.291-21.417l2.667-1.039 2.7-.899 1.343-.448 1.36-.38 2.71-.753c1.55-.373 3.12-.751 4.721-1.091l2.437-.426c.819-.141 1.642-.3 2.484-.378 1.674-.201 3.134-.625 3.921-.729 4.369-.249 8.73-.199 13.849.216.397.007 1.015.043 1.732.082.717.041 1.537.061 2.332.134.932.21 1.927.418 2.971.621 6.369.988 12.527 2.754 18.386 5.103l-.007-.028 2.244.894 2.29 1.058c1.571.684 3.11 1.559 4.7 2.383.798.407 1.554.904 2.338 1.354.77.474 1.576.894 2.32 1.412 1.508 1.002 3.037 1.961 4.446 3.032a99.912 99.912 0 0 1 6.6 5.198c.046.042.094.081.14.122l.042.038 1.457 1.322 1.394 1.391 1.395 1.392c.462.467.89.967 1.337 1.449-.216-.35-.208-.491-.2-.63-.689-.66-1.504-1.441-2.309-2.21 1.343 1.222 2.515 2.327 3.477 3.229.371.474.776.94 1.16 1.449l1.186 1.566 1.261 1.629 1.255 1.752c2.226 2.838 4.191 5.874 6.057 8.97.864 1.588 1.817 3.131 2.586 4.774l1.213 2.436 1.092 2.497c.314.533.192.022.231-.068 1.225 2.962 2.21 6.042 3.102 9.146a88.212 88.212 0 0 1 3.408 17.211c.225 1.378.321 2.772.52 4.153l-.123 2.924c-.001 1.103.057 2.206.01 3.311l-.128 3.326c-.016.75-.124 1.569-.187 2.459-.084.888-.128 1.846-.256 2.856l-.412 3.192c-.132 1.119-.387 2.269-.583 3.471a90.635 90.635 0 0 1-4.312 15.482c-.242.826-.427 1.486-.592 1.855-.627 1.501-1.296 2.954-1.942 4.385-.723 1.394-1.386 2.788-2.127 4.108a86.09 86.09 0 0 1-7.949 12.379c-.336.439-.649.885-.987 1.297l-.998 1.206c-.66.779-1.25 1.558-1.876 2.234-1.251 1.352-2.301 2.606-3.286 3.549-1.128 1.178-1.027 1.233-.246.665a35.07 35.07 0 0 0 1.608-1.262l2.122-1.914c.776-.677 1.519-1.441 2.235-2.161.708-.725 1.416-1.386 1.962-1.984 1.101-1.191 1.824-1.926 1.67-1.599-1.777 3.345-5.013 7.471-9.743 12.035-2.413 2.227-5.128 4.647-8.339 6.98-1.566 1.221-3.307 2.338-5.082 3.558-1.834 1.123-3.708 2.353-5.757 3.445-4.484 2.442 3.365-1.475 3.577-1.512a22.87 22.87 0 0 1-2.377 1.64c-1.478.786-2.943 1.597-4.474 2.273-.895.411-1.774.855-2.679 1.239l-2.729 1.122 1.444-.568c2.952-1.173 5.711-2.555 8.202-3.922-.936.566-1.96 1.221-3.082 1.812-1.203.622-2.448 1.302-3.697 1.909l-3.625 1.686c12.968-4.711 24.885-12.507 34.319-22.67 4.723-5.066 8.935-10.631 12.369-16.651a93.904 93.904 0 0 0 8.288-18.999c-3.154 9.93-8.071 19.052-13.981 26.765 10.744-14.507 17.15-32.293 17.999-50.636-.001 1.011-.101 2.018-.168 3.025-.083 1.007-.123 2.018-.241 3.022-.257 2.005-.441 4.021-.827 6.009-.624 4-1.636 7.931-2.782 11.815 2.262-7.021 3.613-14.424 4.145-21.869.554-7.451.092-14.947-1.057-22.211 1.974 9.622 2.301 20.524.619 31.298 1.182-6.949 1.482-14.112 1.028-21.214-.102-2.713-.422-5.407-.685-7.901-.377-2.476-.662-4.762-1.027-6.611 1.445 6.826 2.015 12.648 2.293 18.136-.267-11.977-2.748-24.112-7.62-35.511 2.659 6.191 4.842 12.851 6.175 19.698 1.34 6.84 1.897 13.838 1.58 20.57-.015-.788.018-1.575-.028-2.366l-.107-2.391c.287 10.85-1.384 21.604-4.696 31.717-1.662 5.056-3.715 9.969-6.2 14.644a95.521 95.521 0 0 1-8.56 13.316c3.673-4.29 7.551-10.354 10.646-17.015 3.081-6.675 5.368-13.894 6.941-20.199-2.314 11.322-6.907 22.494-13.571 32.471-6.646 9.985-15.351 18.764-25.423 25.502-10.06 6.759-21.474 11.437-33.187 13.748a94.608 94.608 0 0 1-17.657 1.809 94.462 94.462 0 0 1-17.361-1.515l3.005.571c1.002.19 2.018.295 3.026.445 2.016.324 4.055.446 6.087.633 4.073.229 8.168.306 12.25-.005 4.089-.217 8.152-.827 12.196-1.572 2.006-.456 4.036-.829 6.017-1.414.994-.278 2-.521 2.987-.83l2.955-.958c-1.492.462-3.062 1.074-4.739 1.523l-2.101.618a91.772 91.772 0 0 0 12.91-4.496 89.46 89.46 0 0 0 5.651-2.705 96.653 96.653 0 0 1-10.714 4.872 98.407 98.407 0 0 1-21.66 5.382c-1.11.176-2.122.231-3.029.326l-2.428.24c-1.429.113-2.484.164-3.222.245-1.477.147-1.687.284-1.099.397.587.113 1.971.203 3.673.251 1.697-.01 3.71-.101 5.541-.268 18.397-1.887 35.288-9.107 48.824-19.916 13.545-10.811 23.919-25.172 29.701-41.467.363-.946.642-1.922.944-2.89.293-.971.617-1.932.882-2.912.491-1.97 1.072-3.917 1.448-5.917l.619-2.985.487-3.012.241-1.507.172-1.517.342-3.034c.698-8.114.422-16.315-.812-24.363-.66-4.554-1.82-9.961-3.315-14.777l-1.15-3.484c-.4-1.107-.825-2.151-1.203-3.133l-.557-1.415-.571-1.271-.981-2.124c-3.134-6.359-7.072-12.424-11.682-18.065-4.605-5.643-9.896-10.868-15.861-15.418l-2.244-1.703-2.327-1.608-1.166-.806-1.203-.756-2.417-1.508c-3.295-1.904-6.67-3.739-10.228-5.261-3.521-1.598-7.206-2.895-10.957-4.055-1.895-.52-3.781-1.1-5.724-1.499-.968-.209-1.928-.463-2.907-.638l-2.944-.521C100.363.01 93.04-.285 85.724.265 78.412.83 71.069 2.218 64.028 4.614l-2.635.913c-.881.297-1.73.682-2.597 1.019-.858.359-1.735.673-2.577 1.069l-2.532 1.173c-.852.376-1.675.808-2.496 1.245l-2.469 1.297-2.402 1.412c-.8.472-1.606.933-2.372 1.458l-2.324 1.528c-.782.497-1.506 1.078-2.261 1.612-.741.554-1.51 1.07-2.226 1.654l-2.157 1.737c-.729.565-1.417 1.178-2.103 1.792l-2.063 1.83-1.971 1.919c-.656.639-1.319 1.271-1.93 1.951-5.031 5.298-9.451 11.078-13.066 17.194A99.518 99.518 0 0 0 5.18 64.379C.805 77.299-.45 90.402.134 102.237c-.126-4.872-.147-11.859.753-18.755zm141.132 90.446a96.807 96.807 0 0 0 8.765-6.389c-2.84 2.339-5.758 4.499-8.765 6.389zm40.217-54.282c-.299.901-.552 1.791-.882 2.641l-.957 2.523-.466 1.248-.513 1.231a108.54 108.54 0 0 0-.997 2.501 97.307 97.307 0 0 1-6.587 13.35c-2.521 4.275-5.443 8.281-8.565 12.04-1.542 1.899-3.222 3.66-4.874 5.421l-2.581 2.523c-.847.848-1.774 1.604-2.652 2.404-.736.64-1.478 1.266-2.225 1.882a90.696 90.696 0 0 0 7.896-7.312 89.808 89.808 0 0 1-11.689 10.188c-1.036.722-2.037 1.496-3.113 2.176l-3.247 2.069-3.43 1.949c-1.167.648-2.399 1.224-3.634 1.855a74.206 74.206 0 0 1 2.685-1.508c1.021-.567 2.092-1.237 3.138-1.85 1.054-.601 2.012-1.261 2.808-1.813.796-.552 1.42-1.01 1.745-1.306-.464.315-.936.617-1.406.924a92.477 92.477 0 0 0 1.507-1.015c-.021.023-.065.059-.101.091 10.932-7.466 20.245-17.277 27.223-28.462 7.009-11.175 11.57-23.781 13.46-36.601-.41 5.142-1.352 9.248-2.543 12.851zm-6.654-65.352zm-8.448-12.698a92.37 92.37 0 0 1 7.773 14.352c.25.549.486 1.106.719 1.664 4.963 12.154 7.221 25.192 6.89 38.036.084-4.25-.198-8.498-.669-12.71-.533-4.854-1.518-9.65-2.824-14.341-2.562-9.407-6.723-18.323-12.005-26.451.485.67.996 1.396 1.525 2.166a32.826 32.826 0 0 1 1.59 2.463l-.638-1.109-.689-1.079-1.378-2.156c-.938-1.424-1.955-2.796-2.934-4.192-1.062-1.334-2.069-2.712-3.174-4.011-.836-.953-1.637-1.938-2.485-2.879 2.992 3.155 5.801 6.54 8.299 10.247zM96.886 1.152c1.467.078 2.937.221 4.407.331 1.204.101 2.402.279 3.588.413.356.015.732.039 1.204.092.471.065 1.034.186 1.769.354 5.469.912 10.459 2.283 14.001 3.699 6.798 2.573 13.123 5.774 18.86 9.471 5.739 3.69 10.889 7.887 15.246 12.471 2.008 2.179 1.422 1.704.315.646l1.662 1.764c-.736-.734-1.459-1.478-2.206-2.196l-2.301-2.09c.56.49 1.918 1.663 2.845 2.522-7.389-7.539-16.026-13.799-25.375-18.404-9.356-4.603-19.431-7.446-29.502-8.581 1.618.18 2.412.22 3.168.24-1.085-.127-2.173-.301-3.274-.401-1.479-.097-2.955-.229-4.423-.301l-4.36-.103c1.444-.001 2.907.039 4.376.073z"/><path xmlns="http://www.w3.org/2000/svg" d="M115.942 184.69l.426-.125c-.446.12-.885.252-1.334.366.304-.076.609-.15.908-.241zM160.424 146.151c4.235-5.587 7.977-12.263 10.366-18.014l-.029.006c-6.061 14.322-15.892 26.66-28.16 35.744a159.12 159.12 0 0 0 6.418-4.703c2.698-2.82 7.213-7.406 11.405-13.033zM35.35 162.846c7.172 6.412 15.821 11.992 25.448 15.751 3.754 1.413 7.585 2.651 11.503 3.523 1.944.502 3.929.812 5.899 1.181.987.175 1.987.272 2.979.412.994.129 1.986.275 2.987.333-4.519-.501-9.005-1.251-13.372-2.44-4.364-1.185-8.642-2.65-12.769-4.449a97.4 97.4 0 0 1-11.894-6.314c-3.786-2.408-7.376-5.097-10.781-7.997zM123.877 174.277l-2.219.871-2.266.756c-1.5.54-3.047.944-4.59 1.373 1.551-.39 3.111-.754 4.624-1.254l2.283-.698 2.23-.815c-.086-.044-.594.055-.062-.233zM97.683 179.965c-1.16.099-2.326.09-3.494.102-1.168.014-2.338.039-3.509-.038l1.576.148c.482.031.916.068 1.295.113 1.381-.118 2.752-.151 4.132-.325zM51.441 169.209c1.341.787 2.765 1.48 4.178 2.244.354.194.996.415 1.801.709-1.721-.739-3.37-1.655-5.046-2.505-.83-.441-1.629-.935-2.443-1.395-.812-.464-1.621-.927-2.389-1.445l.937.626.977.584 1.985 1.182z"/></g><g data-name="monogram" fill="url(#gradient-11)" data="id:25" transform="translate(42.03864695143979,158.34574824821405) scale(1.2569174811951715)"><path d="M21.04,46.54q-0.84-1.46-2.52-4.78q-2.6-5.44-4-7.32l-3.24,3.72l0,6.8l3.32,0.4l0,2.64l-13.2,0l0-2.64l3.08-0.44l0-23.28l-3.08-0.56l0-2.8l12.84,0l0,2.8l-2.96,0.56l0,12.44l9.76-12.44l-3.24-0.56l0-2.8l11.4,0l0,2.76l-3.52,0.56l-7.2,8.16q1.44,1.28,2.98,3.66t3.74,6.26q1.48,2.6,2.22,3.8t1.18,1.44l1.92,0.44l0,2.64l-8.08,0q-0.56,0-1.4-1.46z "/></g><g data-name="business_name" fill="url(#gradient-11)" data="id:334" transform="translate(135.6106837115199,133.39136780998223) scale(1.6991996023392677)"><path d="M11.88,49.52q-1.12,0-1.92-0.76t-1.26-1.92t-0.68-2.38t-0.22-2.14q0.44,0,1.28-0.22t1.72-0.68t1.5-1.2t0.62-1.74q0-0.84-0.6-1.32t-1.4-0.48q-1.24,0-2.32,0.86t-1.94,2.24t-1.54,2.94t-1.16,2.96t-0.8,2.32q-0.24,0.72-0.68,0.98t-0.92,0.26q-0.68,0-0.98-0.56t-0.36-1.42t-0.06-1.78q0-2.08,0.68-4.8t1.82-5.66t2.5-5.7t2.72-5t2.52-3.56t1.88-1.32q0.56,0,0.9,0.76t0.34,1.84q0,1.36-0.6,3.06t-1.7,3.42t-2.6,3.24t-3.26,2.6q-1.32,3.24-1.98,6.3t-0.66,5.14q0.64-1.6,1.54-3.52t2.06-3.68t2.52-2.88t2.84-1.12t2.52,1.04t1.04,2.52q0,1.28-0.66,2.18t-1.6,1.44t-1.88,0.8t-1.54,0.26q0.04,0.32,0.24,1.16t0.58,1.76t0.94,1.58t1.36,0.66q1.16,0,2.2-0.88t1.98-2.34t1.74-3.3l0.4,0.4q-0.56,1.96-1.72,3.7t-2.58,2.84t-2.82,1.1z M6.04,32.76q1.84-1.48,3.22-3.36t2.14-3.62t0.76-2.74q0-0.2-0.02-0.28t-0.1-0.08q-0.4,0-1.38,1.4t-2.22,3.7t-2.4,4.98z M19.76,49.88q-1.24,0-2.1-0.82t-0.86-2.5q0-1.44,0.64-3.1t1.76-3.28t2.54-2.96t3-2.14t3.14-0.8t2.6,0.82t1.04,2.18q0,1-0.54,1.36t-1.42,0.36q0.08-0.32,0.14-0.7t0.06-0.7q0-0.92-0.44-1.58t-1.52-0.66q-1.12,0-2.28,0.78t-2.24,2.08t-1.92,2.82t-1.32,3t-0.48,2.64q0,1.56,1.08,1.56q0.92,0,2-0.86t2.22-2.2t2.18-2.78t1.84-2.64q0.16-0.24,0.2-0.24q0.24,0.04,0.62,0.16t0.66,0.32t0.28,0.52q0,0.36-0.36,0.98t-0.8,1.42t-0.8,1.62t-0.36,1.54q0,0.6,0.32,1.18t1.04,0.58q1.08,0,2.84-1.58t3.56-4.74l0.4,0.4q-0.84,2.16-2.16,3.8t-2.82,2.56t-2.94,0.92q-1.48,0-2.18-0.88t-0.7-1.92q0-0.24,0.04-0.54t0.08-0.62q-1.72,2.32-3.14,3.48t-2.9,1.16z  M38.68,49.84q-1.72,0-2.64-1t-0.92-2.96q0-1.76,0.66-4.34t1.66-5.3q-0.4-0.08-0.76-0.14t-0.68-0.18l0-0.72q0.32,0.04,0.76,0.08t1,0.08q0.84-2.16,1.8-4.18t1.9-3.6t1.8-2.52t1.46-0.94q0.32,0,0.58,0.22t0.26,0.66q0,0.68-0.84,2.22t-2.08,3.66t-2.4,4.6l0.74,0l0.74,0q1.32,0,2.78-0.04t2.94-0.2l0,0.72q-2.2,0.24-3.94,0.36t-3.1,0.12l-0.3,0l-0.3,0q-0.92,2.12-1.56,4.36t-0.64,4.36q0,1.72,0.52,2.46t1.72,0.74q2.08,0,4.08-1.84t3.52-5l0.52,0.4q-0.96,2.24-2.42,4.04t-3.22,2.84t-3.64,1.04z M51,49.76q-2.44,0-3.66-1.34t-1.22-3.3q0-1.8,0.9-3.8t2.4-3.76t3.3-2.86t3.56-1.1q0.92,0,1.7,0.48t0.78,1.96q0,1.52-0.9,2.86t-2.36,2.38t-3.2,1.7t-3.46,0.82q-0.08,0.4-0.12,0.76t-0.04,0.68q0,0.6,0.14,1.2t0.5,1.1t0.98,0.78t1.54,0.28q1.72,0,3.4-0.98t3.12-2.58t2.44-3.52l0.48,0.36q-1.08,2.4-2.74,4.16t-3.6,2.74t-3.94,0.98z M49.04,43.04q1.08-0.36,2.44-1.06t2.62-1.66t2.08-2.12t0.82-2.44q0-0.44-0.16-0.68t-0.68-0.24q-0.96,0-2.04,0.74t-2.08,1.94t-1.8,2.64t-1.2,2.88z  M74.6,50.04q-1.88,0-2.98-0.82t-1.56-2.02t-0.46-2.4t0.32-1.84t0.78-0.96t0.88-0.48t0.58-0.32q1.2-1.32,2.2-2.76t1.76-3.04l0-0.48q0-1.48,0.5-2.1t1.06-0.62q0.32,0,0.48,0.16t0.16,0.36t-0.12,0.64t-0.12,1.12q0,1.32,0.52,2.86t1.04,3.24t0.52,3.54q0,0.52-0.06,1.02t-0.18,0.94q1.4-0.24,2.64-1.26t2.4-3.26l0.36,0.4q-0.76,2.2-2.28,3.34t-3.32,1.42q-0.64,1.72-2.02,2.52t-3.1,0.8z M74.68,48.64q0.48,0,1.28-0.32t1.24-1.64q-1.68-0.32-2.98-1.32t-1.94-2q-0.88,0.04-0.88,1.4q0,1.44,0.86,2.66t2.42,1.22z M77.4,46.04q0.08-0.4,0.12-0.84t0.04-1.04q0-1.88-0.46-3.74t-0.78-3.5q-0.92,1.52-1.94,2.9t-1.94,2.3q0.6,1.28,1.86,2.4t3.1,1.52z M87.6,49.84q-1.72,0-2.64-1t-0.92-2.96q0-1.76,0.66-4.34t1.66-5.3q-0.4-0.08-0.76-0.14t-0.68-0.18l0-0.72q0.32,0.04,0.76,0.08t1,0.08q0.84-2.16,1.8-4.18t1.9-3.6t1.8-2.52t1.46-0.94q0.32,0,0.58,0.22t0.26,0.66q0,0.68-0.84,2.22t-2.08,3.66t-2.4,4.6l0.74,0l0.74,0q1.32,0,2.78-0.04t2.94-0.2l0,0.72q-2.2,0.24-3.94,0.36t-3.1,0.12l-0.3,0l-0.3,0q-0.92,2.12-1.56,4.36t-0.64,4.36q0,1.72,0.52,2.46t1.72,0.74q2.08,0,4.08-1.84t3.52-5l0.52,0.4q-0.96,2.24-2.42,4.04t-3.22,2.84t-3.64,1.04z M97.32,59.2q-1,0-1.76-0.54t-0.76-1.58q0-1.28,0.64-2.28t1.72-1.84t2.48-1.6t2.92-1.52q0.56-1.48,1.14-3.3t1.1-4.02q-1.28,2.08-2.74,3.58t-3.1,1.5q-0.76,0-1.5-0.34t-1.22-1.06t-0.48-1.84t0.38-2.6t0.94-2.88t1.16-2.32t1.04-0.92q0.16,0,0.58,0.12t0.8,0.34t0.38,0.46q-0.36,0.52-0.8,1.48t-0.86,2.14t-0.7,2.3t-0.28,1.92q0,0.72,0.32,1.16t1.12,0.44q0.76,0,1.7-0.74t1.88-1.9t1.74-2.48q0.12-0.44,0.22-0.9t0.18-0.94q0.12-0.56,0.58-1.3t1.46-0.74q0.2,0,0.4,0.02t0.44,0.1q0,0.64-0.38,2.38t-1.08,4.06t-1.66,4.76q1.88-0.72,3.68-2.38t2.92-4.42l0.52,0.4q-0.6,1.92-1.82,3.34t-2.74,2.44t-3,1.7q-1.04,2.56-2.26,4.8t-2.56,3.62t-2.74,1.38z M97.12,57.92q0.6,0,2.02-1.58t3.02-5.54q-1.64,0.88-3.04,1.74t-2.24,1.86t-0.84,2.32q0,0.32,0.24,0.76t0.84,0.44z M114.48,49.2q-1.72,0-2.46-1.18t-0.74-2.94q0-1.92,0.72-4.56t1.9-5.56t2.58-5.7t2.8-5.06t2.58-3.64t1.86-1.36q0.44,0,0.72,0.5t0.44,1.2t0.16,1.26q0,1.08-0.54,2.82t-1.52,3.88t-2.32,4.32t-2.92,4.18t-3.34,3.44q-0.24,1.08-0.38,2.1t-0.14,1.94q0,1.56,0.44,2.32t1.32,0.76q1.08,0,2.14-0.96t2-2.42t1.62-3.02l0.6,0.32q-1.6,3.4-3.48,5.38t-4.04,1.98z M114.76,39.44q1.4-1.4,2.72-3.22t2.46-3.78t2.02-3.8t1.36-3.3t0.48-2.26q0-0.4-0.1-0.52t-0.18-0.12q-0.32,0-1.1,1.02t-1.82,2.74t-2.12,3.92t-2.06,4.6t-1.66,4.72z M124.92,49.76q-2.44,0-3.66-1.34t-1.22-3.3q0-1.8,0.9-3.8t2.4-3.76t3.3-2.86t3.56-1.1q0.92,0,1.7,0.48t0.78,1.96q0,1.52-0.9,2.86t-2.36,2.38t-3.2,1.7t-3.46,0.82q-0.08,0.4-0.12,0.76t-0.04,0.68q0,0.6,0.14,1.2t0.5,1.1t0.98,0.78t1.54,0.28q1.72,0,3.4-0.98t3.12-2.58t2.44-3.52l0.48,0.36q-1.08,2.4-2.74,4.16t-3.6,2.74t-3.94,0.98z M122.96,43.04q1.08-0.36,2.44-1.06t2.62-1.66t2.08-2.12t0.82-2.44q0-0.44-0.16-0.68t-0.68-0.24q-0.96,0-2.04,0.74t-2.08,1.94t-1.8,2.64t-1.2,2.88z M133.72,59.2q-1.24,0-1.94-0.46t-0.7-1.58q0-1.28,0.86-2.38t2.3-2.1t3.18-2.02t3.46-2.18q0-1.44-0.6-2.64t-2.16-2.44q1.4-0.4,2.38-1.4t1.48-2.22t0.5-2.26q0-0.92-0.38-1.52t-1.18-0.6q-1.32,0-2.36,1t-1.92,2.64t-1.8,3.6l-0.48-0.4q0.88-2.4,1.82-4.28t2.22-2.98t3.08-1.1q1.36,0,2.34,0.88t0.98,2.4q0,1.44-0.68,2.68t-1.76,2.18t-2.28,1.54q1.04,0.8,1.74,1.7t1.06,1.9q1.52-1.16,2.7-2.54t1.74-3.1l0.44,0.48q-0.56,1.8-1.8,3.26t-2.84,2.66q0.08,0.28,0.12,0.64t0.04,0.68q0,1.8-0.8,3.58t-2.16,3.22t-3.06,2.3t-3.54,0.86z M133.44,58.04q0.72,0,1.88-0.58t2.36-1.68t2.08-2.7t1.08-3.68q-1.6,1-3.14,1.9t-2.78,1.76t-1.98,1.76t-0.74,1.9q0,0.68,0.36,1t0.88,0.32z"/></g></svg>